<svg width="64" height="64" xmlns="http://www.w3.org/2000/svg">

 <g>
  <title>background</title>
  <rect fill="none" id="canvas_background" height="402" width="582" y="-1" x="-1"/>
 </g>
 <g>
  <title>Layer 1</title>
  <circle stroke-opacity="0" stroke="#000000" id="svg_2" r="31" fill="#ffffff" cy="31.999998" cx="32"/>
  <path opacity="0" id="svg_6" fill="#231F20" d="m32,41.5c3.315,0 6,-2.685 6,-6l0,-18c0,-3.315 -2.685,-6 -6,-6s-6,2.685 -6,6l0,18c0,3.315 2.685,6 6,6z"/>
  <path opacity="0" id="svg_9" fill="#231F20" d="m32,48.25c-7.168,0 -13,-5.832 -13,-13l0,-3.75c0,-0.828 0.672,-1.5 1.5,-1.5s1.5,0.672 1.5,1.5l0,3.75c0,5.514 4.486,10 10,10s10,-4.486 10,-10l0,-3.75c0,-0.828 0.672,-1.5 1.5,-1.5s1.5,0.672 1.5,1.5l0,3.75c0,7.168 -5.832,13 -13,13z"/>
  <path opacity="0.2" id="svg_12" fill="#231F20" d="m32,55c-0.828,0 -1.5,-0.672 -1.5,-1.5l0,-6c0,-0.828 0.672,-1.5 1.5,-1.5s1.5,0.672 1.5,1.5l0,6c0,0.828 -0.672,1.5 -1.5,1.5z"/>
  <path opacity="0" id="svg_15" fill="#000000" d="m37,56l-10,0c-0.828,0 -1.5,-0.672 -1.5,-1.5s0.672,-1.5 1.5,-1.5l10,0c0.828,0 1.5,0.672 1.5,1.5s-0.672,1.5 -1.5,1.5z"/>
  <path stroke="null" id="svg_18" fill="#000000" d="m32,39.824542c2.149491,0 3.890481,-1.668374 3.890481,-3.72821l0,-11.18463c0,-2.059836 -1.74099,-3.72821 -3.890481,-3.72821s-3.890481,1.668374 -3.890481,3.72821l0,11.18463c0,2.059836 1.74099,3.72821 3.890481,3.72821z"/>
  <path stroke="null" id="svg_20" fill="#000000" d="m32.000002,46.249999c-5.199581,0 -9.430044,-4.380046 -9.430044,-9.763476l0,-2.816387c0,-0.621858 0.487461,-1.126555 1.088082,-1.126555s1.088082,0.504697 1.088082,1.126555l0,2.816387c0,4.141216 3.25409,7.510366 7.25388,7.510366s7.25388,-3.36915 7.25388,-7.510366l0,-2.816387c0,-0.621858 0.487461,-1.126555 1.088082,-1.126555s1.088082,0.504697 1.088082,1.126555l0,2.816387c0,5.383431 -4.230463,9.763476 -9.430044,9.763476z"/>
  <path id="svg_22" fill="#000000" d="m32,53c-0.828,0 -1.5,-0.672 -1.5,-1.5l0,-6c0,-0.828 0.672,-1.5 1.5,-1.5s1.5,0.672 1.5,1.5l0,6c0,0.828 -0.672,1.5 -1.5,1.5z"/>
  <path id="svg_24" fill="#FFFFFF" d="m36.918866,53.918866l-10,0c-0.828,0 -1.5,-0.672 -1.5,-1.5s0.672,-1.5 1.5,-1.5l10,0c0.828,0 1.5,0.672 1.5,1.5s-0.672,1.5 -1.5,1.5z"/>
  <path stroke="null" id="svg_25" d="m32.486812,22.236711c0,0 -0.081135,27.076491 -0.081135,27.076491c0,0 0,6.351276 0,6.351276c0,0 0.32454,-23.733714 0.32454,-23.733714" opacity="0" fill-opacity="null" stroke-opacity="null" stroke-width="null" fill="#000000"/>
  <path id="svg_26" d="m-28.283571,25.806667" opacity="0.5" fill-opacity="null" stroke-opacity="null" stroke-width="null" stroke="null" fill="#000000"/>
 </g>
</svg>