<?xml version="1.0" encoding="utf-8"?>
<!-- Svg Vector Icons : http://www.onlinewebfonts.com/icon -->
<!DOCTYPE svg PUBLIC "-//W3C//DTD SVG 1.1//EN" "http://www.w3.org/Graphics/SVG/1.1/DTD/svg11.dtd">
<svg version="1.1" xmlns="http://www.w3.org/2000/svg" xmlns:xlink="http://www.w3.org/1999/xlink" x="0px" y="0px" viewBox="0 0 1000 1000" enable-background="new 0 0 1000 1000" xml:space="preserve">
<metadata> Svg Vector Icons : http://www.onlinewebfonts.com/icon </metadata>
<g><path d="M621.2,742.9H378.8c-18,0-32.7,14.6-32.7,32.7c0,18,14.6,32.7,32.7,32.7h242.3c18,0,32.7-14.6,32.7-32.7C653.9,757.5,639.2,742.9,621.2,742.9z"/><path d="M436.5,935.8v17.8c0,20.1,16.3,36.4,36.4,36.4h54.3c20.1,0,36.4-16.3,36.4-36.4v-17.8c41.2-2.9,73.7-36.9,73.7-78.8H362.7C362.7,899,395.3,932.9,436.5,935.8z"/><path d="M500,10c-180.8,0-327.4,146.6-327.4,327.4c0,76.3,26.2,146.3,70.1,201.9c38.8,49.1,75.5,102.9,107.2,156.9h300.2c32-54.5,68.1-107.2,107.2-156.9c43.8-55.6,70.1-125.6,70.1-201.9C827.4,156.6,680.8,10,500,10z M500.6,123.6c-116.2,0-210.7,94.5-210.7,210.7c0,18-14.6,32.7-32.7,32.7c-18.1,0-32.7-14.6-32.7-32.7c0-152.2,123.8-276.1,276.1-276.1c18,0,32.7,14.6,32.7,32.7C533.2,109,518.6,123.6,500.6,123.6z"/></g>
</svg>