<?xml version="1.0" encoding="utf-8"?>
<!-- Svg Vector Icons : http://www.onlinewebfonts.com/icon -->
<!DOCTYPE svg PUBLIC "-//W3C//DTD SVG 1.1//EN" "http://www.w3.org/Graphics/SVG/1.1/DTD/svg11.dtd">
<svg version="1.1" xmlns="http://www.w3.org/2000/svg" xmlns:xlink="http://www.w3.org/1999/xlink" x="0px" y="0px" viewBox="0 0 1000 1000" enable-background="new 0 0 1000 1000" xml:space="preserve">
<metadata> Svg Vector Icons : http://www.onlinewebfonts.com/icon </metadata>
<g><g transform="translate(0.000000,511.000000) scale(0.100000,-0.100000)"><path d="M4654.4,4989.2c-52.5-15.3-124.8-61.3-183.9-122.6l-98.5-98.5l-913-170.8c-503.6-91.9-943.6-183.9-980.8-203.6c-155.4-81-245.2-236.5-245.2-424.7c0-111.7,10.9-146.7,72.2-236.5c96.3-142.3,218.9-205.8,400.7-205.8c83.2,0,663.4,96.3,1436.3,240.8C5330.9,3986.4,5447,4012.7,5528,4069.6c227.7,159.8,267.1,468.5,85.4,678.7c-100.7,118.2-168.6,146.7-521.1,210.2C4755.1,5022,4774.8,5019.9,4654.4,4989.2z"/><path d="M7216,3947c-32.8-4.4-1096.9-188.3-2360.2-409.4c-2533.1-444.5-2428.1-420.4-2550.7-606.5c-81-120.4-96.3-324-32.8-446.6c74.4-142.3,203.6-236.5,367.8-262.7c61.3-8.8,759.7,105.1,2417.1,396.3c2539.7,444.5,2511.3,437.9,2616.4,597.7C7903.5,3566.1,7632,4001.8,7216,3947z"/><path d="M4904,2232.7C3610.1,2005,2524.1,1808,2491.3,1794.8c-72.2-28.5-208-175.2-236.5-251.8c-37.2-96.3-26.3-286.8,21.9-381c72.2-140.1,243-240.8,407.2-240.8c87.6,0,4678.8,801.3,4768.6,832c153.3,52.5,271.5,194.9,308.7,370c50.4,232.1-214.6,536.4-459.8,525.5C7277.4,2648.7,6198,2460.4,4904,2232.7z"/><path d="M5249.9,978.2c-899.8-159.8-1666.1-304.3-1705.5-321.8c-94.1-37.2-210.2-140.1-254-223.3c-43.8-85.4-43.8-293.4-2.2-376.6c19.7-35,61.3-89.8,92-118.2c76.6-72.2,146.7-267.1,159.8-455.4l13.1-155.4l-240.8-8.8c-223.3-6.6-247.4-10.9-348.1-72.2c-65.7-41.6-131.4-107.3-173-173c-61.3-100.7-65.7-124.8-72.2-350.3c-8.8-271.5,21.9-435.7,111.7-588.9c30.7-50.4,214.6-262.7,407.2-472.9l352.5-380.9v-497c0-569.2,15.3-645.9,155.4-786c153.3-153.3,170.8-155.4,1234.8-155.4c1077.2,0,1103.4,4.4,1256.7,155.4c137.9,140.1,155.4,225.5,155.4,805.7v494.8l365.6,394.1c455.4,492.6,492.6,560.5,505.7,919.6c13.2,313.1-24.1,448.8-148.9,575.8c-113.8,113.9-245.2,157.6-464.2,157.6h-170.8v61.3c0,85.4,76.6,378.8,120.4,464.2l35,67.9l-72.2-13.1c-39.4-6.6-273.7-50.4-521.1-96.3l-448.8-83.2l-13.1-63.5c-8.8-35-15.3-124.8-17.5-199.2l-2.2-137.9h-558.3h-558.3v116c0,61.3-10.9,181.7-21.9,264.9c-13.1,83.2-19.7,155.5-13.1,159.8c4.4,4.4,613,116,1350.9,247.4c740,133.6,1375,251.8,1410,267.1c37.2,15.3,105.1,67.9,155.4,118.2c280.3,280.2,74.5,757.5-324,751C6938,1269.4,6149.8,1138,5249.9,978.2z"/><path d="M4181.5-4355.2c0-52.6,264.9-282.5,407.2-352.5c133.6-65.7,170.8-74.5,367.8-81c247.4-8.8,378.8,26.3,569.2,151.1c94.2,63.5,254,243,254,284.6c0,10.9-359.1,19.7-799.1,19.7C4461.8-4333.3,4181.5-4342.1,4181.5-4355.2z"/></g></g>
</svg>