<?xml version="1.0" encoding="utf-8"?>
<!-- Svg Vector Icons : http://www.onlinewebfonts.com/icon -->
<!DOCTYPE svg PUBLIC "-//W3C//DTD SVG 1.1//EN" "http://www.w3.org/Graphics/SVG/1.1/DTD/svg11.dtd">
<svg version="1.1" xmlns="http://www.w3.org/2000/svg" xmlns:xlink="http://www.w3.org/1999/xlink" x="0px" y="0px" viewBox="0 0 1000 1000" enable-background="new 0 0 1000 1000" xml:space="preserve">
<metadata> Svg Vector Icons : http://www.onlinewebfonts.com/icon </metadata>
<g><g transform="translate(0.000000,511.000000) scale(0.100000,-0.100000)"><path d="M4642.5,4994.5c-1158.5-164.4-2063.9-968-2361.3-2100.4c-39.1-146.1-57.4-318.3-65.2-574c-20.9-589.7,57.4-840.2,480.1-1589c313.1-553.2,456.6-861.1,581.8-1242c195.7-594.9,281.8-1137.6,305.3-1936l15.6-542.7H5000h1401.2l15.6,542.7c18.3,589.7,62.6,978.4,164.4,1437.7c130.5,587.1,302.7,999.4,722.8,1740.4c422.7,748.8,501,999.3,480.1,1589c-7.8,258.3-26.1,427.9-67.9,579.2c-274,1051.5-1090.6,1831.7-2150,2058.7C5336.6,5007.6,4861.7,5025.8,4642.5,4994.5z"/><path d="M3617.1-3381v-208.7H5000h1382.9v208.7v208.7H5000H3617.1V-3381z"/><path d="M3617.1-3981.1v-208.7H5000h1382.9v208.7v208.7H5000H3617.1V-3981.1z"/><path d="M4008.5-4581.2V-4790H5000h991.5v208.8v208.7H5000h-991.5V-4581.2z"/></g></g>
</svg>